<svg id="Capa_1" enable-background="new 0 0 512 512" height="512" viewBox="0 0 512 512" width="512" xmlns="http://www.w3.org/2000/svg"><g><path d="m497 0h-80c-8.284 0-15 6.716-15 15v107.106l-68.527-44.493c-20.369-13.226-44.75-18.127-68.648-13.804l-79.793 14.438 1.328-3.649c1.361-3.738 1.181-7.863-.5-11.469-1.682-3.606-4.726-6.396-8.464-7.757l-75.175-27.361c-7.784-2.832-16.392 1.181-19.226 8.966l-82.086 225.526c-2.833 7.784 1.18 16.392 8.965 19.226l75.175 27.362c1.66.604 3.396.904 5.13.904 2.169 0 4.335-.471 6.339-1.405 3.605-1.682 6.396-4.726 7.756-8.465l5.13-14.094 78.219 28.468c14.85 5.404 30.373 8.142 46.162 8.142.439 0 .879-.002 1.318-.007l46.69-.453c22.668 42.796 67.671 72.022 119.379 72.022.277 0 .551-.01.828-.012v102.809c0 8.284 6.716 15 15 15h80c8.284 0 15-6.716 15-15v-482c0-8.284-6.716-15-15-15zm-415.786 275.77-46.984-17.102 71.824-197.335 46.985 17.101zm90.995-30.731 13.104 4.77c23.316 8.484 48.915 6.014 70.009-6.444l11.361 4.135c-.336 3.893-.51 7.802-.51 11.704 0 11.413 1.429 22.497 4.108 33.088l-35.468.344c-12.615.123-25.059-2.007-36.93-6.328l-78.218-28.468 53.487-146.955 97.013-17.554c16.353-2.962 33.033.396 46.97 9.444l42.865 27.831c-21.048 6.723-40.242 18.574-55.867 34.748l-25.105-9.137c-7.785-2.831-16.392 1.181-19.226 8.966-2.833 7.784 1.18 16.392 8.965 19.226l84.572 30.782c7.772 2.828 11.794 11.453 8.965 19.226-2.83 7.772-11.453 11.794-19.226 8.965l-84.572-30.782c-4.713-1.714-9.971-.962-14.013 2.009-14.142 10.392-32.431 13.013-48.923 7.01l-13.104-4.77c-7.783-2.832-16.392 1.18-19.226 8.965s1.184 16.391 8.969 19.225zm309.791 236.961h-50v-91.299c18.17-4.204 35.138-12.119 50-23.281zm0-155.79c-20.036 24.203-49.221 37.993-80.828 37.993-57.897 0-105-47.103-105-105 0-.321.019-.641.022-.962l36.626 13.331c5.064 1.843 10.245 2.716 15.345 2.716 18.386-.001 35.688-11.359 42.331-29.611 8.487-23.316-3.578-49.19-26.895-57.678l-27.672-10.072c18.395-14.617 41.257-22.724 65.242-22.724 31.606 0 60.791 13.791 80.828 37.994v134.013zm0-175.224c-14.862-11.162-31.83-19.077-50-23.281v-97.705h50z"/></g></svg>